<?xml version="1.0" standalone="no"?><!-- Generator: Gravit.io --><svg xmlns="http://www.w3.org/2000/svg" xmlns:xlink="http://www.w3.org/1999/xlink" style="isolation:isolate" viewBox="0 0 200 200" width="200" height="200"><defs><clipPath id="_clipPath_7FnDI6M2hBCmRIW9LRE7aBAK1oB4hvXE"><rect width="200" height="200"/></clipPath></defs><g clip-path="url(#_clipPath_7FnDI6M2hBCmRIW9LRE7aBAK1oB4hvXE)"><g id="Group"><g id="Group"><path d=" M 173.934 125.623 L 173.937 125.636 L 173.937 125.623 L 173.934 125.623 Z " fill="rgb(255,255,255)"/></g><g id="Group"><path d=" M 82.84 106.454 L 82.84 106.467 L 82.842 106.454 L 82.84 106.454 Z " fill="rgb(255,255,255)"/></g><g id="Group"><path d=" M 49.885 139.037 L 49.885 139.046 L 49.885 139.037 L 49.885 139.037 Z " fill="rgb(255,255,255)"/></g><g id="Group"><line x1="67.031" y1="125.874" x2="67.031" y2="125.867"/></g><g id="Group"><path d=" M 153.326 118.175 L 153.328 118.181 L 153.328 118.175 L 153.326 118.175 Z " fill="rgb(255,255,255)"/></g><g id="Group"><path d=" M 120.066 54.555 C 120.995 55.824 122.759 56.407 124.353 55.96 C 124.753 55.848 125.13 55.675 125.478 55.447 C 127.217 54.282 127.647 51.99 126.435 50.342 C 125.716 49.36 124.51 48.775 123.205 48.775 C 122.409 48.775 121.654 48.997 121.019 49.416 C 119.266 50.579 118.838 52.885 120.066 54.555 Z " fill="rgb(255,255,255)"/></g><g id="Group"><path d=" M 110.141 45.353 C 110.206 46.5 110.734 47.54 111.621 48.278 C 112.791 49.292 114.419 49.641 115.922 49.223 C 116.73 48.994 117.452 48.56 118.005 47.967 C 118.815 47.116 119.222 46.023 119.157 44.881 C 119.09 43.739 118.561 42.687 117.663 41.921 C 116.875 41.25 115.817 40.88 114.685 40.88 C 113.359 40.88 112.125 41.384 111.3 42.264 C 110.486 43.108 110.078 44.202 110.141 45.353 Z " fill="rgb(255,255,255)"/></g><g id="Group"><path d=" M 100.224 43.237 C 101.007 43.647 101.889 43.864 102.769 43.864 C 103.271 43.864 103.773 43.796 104.26 43.658 C 105.595 43.286 106.697 42.447 107.357 41.296 C 108.043 40.13 108.206 38.788 107.822 37.509 C 107.435 36.227 106.547 35.168 105.32 34.529 C 104.597 34.154 103.756 33.954 102.888 33.954 C 100.92 33.954 99.068 34.944 98.167 36.476 C 96.787 38.875 97.707 41.91 100.224 43.237 Z " fill="rgb(255,255,255)"/></g><g id="Group"><path d=" M 85.764 40.33 C 86.833 40.611 88.028 40.605 89.13 40.301 C 91.163 39.729 92.726 38.241 93.306 36.318 C 93.752 34.833 93.56 33.264 92.767 31.903 C 91.973 30.547 90.671 29.564 89.097 29.133 C 88.6 29 88.074 28.932 87.543 28.932 C 84.802 28.932 82.264 30.702 81.515 33.14 C 80.614 36.2 82.518 39.43 85.764 40.33 Z " fill="rgb(255,255,255)"/></g><g id="Group"><path d=" M 68.273 40.569 C 69.095 40.612 69.893 40.517 70.671 40.301 C 73.575 39.487 75.629 37.019 75.78 34.158 C 75.881 32.337 75.225 30.59 73.929 29.237 C 72.65 27.899 70.908 27.117 69.021 27.034 L 68.67 27.025 C 64.924 27.025 61.707 29.917 61.499 33.472 C 61.311 37.2 64.35 40.386 68.273 40.569 Z " fill="rgb(255,255,255)"/></g><g id="Group"><path d=" M 38.65 38.842 C 39.36 42.632 42.824 45.382 46.886 45.383 L 46.887 45.383 C 47.373 45.383 47.862 45.342 48.346 45.262 C 48.652 45.212 48.954 45.144 49.248 45.063 C 53.324 43.921 55.847 40.062 55.112 36.086 C 54.387 32.307 50.923 29.559 46.879 29.559 C 46.395 29.559 45.906 29.599 45.426 29.68 C 40.894 30.484 37.851 34.595 38.65 38.842 Z " fill="rgb(255,255,255)"/></g><g id="Group"><path d=" M 121.495 68.612 C 122.3 67.764 122.707 66.666 122.64 65.521 C 122.574 64.378 122.043 63.334 121.146 62.581 C 120.348 61.893 119.286 61.518 118.148 61.518 C 116.834 61.518 115.614 62.016 114.805 62.882 C 113.992 63.73 113.582 64.823 113.643 65.971 C 113.698 67.108 114.22 68.155 115.115 68.926 C 115.954 69.631 117.028 70.025 118.139 70.025 C 118.574 70.025 119.01 69.965 119.434 69.846 C 120.227 69.626 120.938 69.198 121.495 68.612 Z " fill="rgb(255,255,255)"/></g><g id="Group"><path d=" M 111.309 58.145 C 110.914 56.864 110.017 55.799 108.788 55.154 C 108.06 54.776 107.218 54.575 106.352 54.575 C 104.383 54.575 102.575 55.55 101.635 57.122 C 100.269 59.533 101.204 62.571 103.729 63.878 C 104.512 64.286 105.385 64.5 106.254 64.5 C 106.754 64.5 107.255 64.432 107.741 64.296 C 109.082 63.919 110.18 63.079 110.83 61.926 C 111.523 60.759 111.689 59.424 111.309 58.145 Z " fill="rgb(255,255,255)"/></g><g id="Group"><path d=" M 96.793 56.938 C 97.23 55.457 97.035 53.886 96.241 52.52 C 95.444 51.171 94.141 50.195 92.578 49.774 C 92.071 49.636 91.545 49.567 91.011 49.567 C 88.268 49.567 85.743 51.33 85.012 53.762 C 84.085 56.836 85.972 60.054 89.216 60.94 C 90.327 61.234 91.519 61.232 92.628 60.922 C 94.644 60.355 96.201 58.866 96.793 56.938 Z " fill="rgb(255,255,255)"/></g><g id="Group"><path d=" M 79.262 54.786 C 79.365 52.974 78.713 51.233 77.426 49.887 C 76.145 48.546 74.4 47.761 72.508 47.676 C 72.381 47.67 72.258 47.666 72.138 47.666 C 68.461 47.666 65.19 50.607 64.994 54.087 C 64.793 57.813 67.829 61.003 71.764 61.198 C 71.903 61.206 72.039 61.209 72.172 61.209 C 72.846 61.209 73.515 61.116 74.166 60.935 C 77.049 60.127 79.097 57.656 79.262 54.786 Z " fill="rgb(255,255,255)"/></g><g id="Group"><path d=" M 50.34 50.18 C 49.859 50.18 49.375 50.221 48.897 50.301 C 44.375 51.042 41.339 55.158 42.124 59.475 C 42.514 61.561 43.737 63.38 45.571 64.59 C 47.385 65.793 49.624 66.261 51.808 65.889 C 52.134 65.835 52.44 65.765 52.746 65.681 C 56.802 64.545 59.315 60.689 58.59 56.713 C 57.862 52.931 54.393 50.18 50.34 50.18 Z " fill="rgb(255,255,255)"/></g><g id="Group"><path d=" M 17.438 71.376 C 18.974 74.806 22.492 77.024 26.4 77.024 C 27.325 77.024 28.245 76.898 29.138 76.648 C 29.507 76.546 29.88 76.417 30.247 76.27 C 32.667 75.288 34.533 73.483 35.5 71.186 C 36.469 68.901 36.438 66.398 35.414 64.133 C 33.879 60.708 30.352 58.497 26.425 58.497 C 25.114 58.497 23.831 58.746 22.608 59.238 C 17.661 61.236 15.341 66.681 17.438 71.376 Z " fill="rgb(255,255,255)"/></g><g id="Group"><path d=" M 118.554 77.943 C 117.821 77.557 116.972 77.354 116.096 77.354 C 114.132 77.354 112.297 78.342 111.419 79.871 C 110.016 82.276 110.934 85.307 113.461 86.633 C 114.696 87.295 116.145 87.449 117.492 87.071 C 118.82 86.699 119.935 85.851 120.632 84.685 C 122.009 82.295 121.08 79.264 118.554 77.943 Z " fill="rgb(255,255,255)"/></g><g id="Group"><path d=" M 95.29 80.972 C 96.081 82.321 97.382 83.299 98.951 83.729 C 99.495 83.872 100.063 83.946 100.632 83.946 C 101.224 83.946 101.81 83.866 102.374 83.709 C 104.404 83.141 105.961 81.652 106.538 79.725 C 107.447 76.641 105.561 73.421 102.337 72.555 C 101.823 72.415 101.291 72.344 100.752 72.344 C 98.026 72.344 95.506 74.104 94.76 76.53 C 94.304 78.024 94.493 79.602 95.29 80.972 Z " fill="rgb(255,255,255)"/></g><g id="Group"><path d=" M 89.03 77.558 C 89.223 73.828 86.179 70.635 82.242 70.445 L 81.904 70.437 C 78.212 70.437 74.935 73.376 74.75 76.857 C 74.54 80.586 77.575 83.784 81.513 83.985 L 81.864 83.993 C 82.561 83.993 83.246 83.9 83.902 83.716 C 86.796 82.905 88.857 80.431 89.03 77.558 Z " fill="rgb(255,255,255)"/></g><g id="Group"><path d=" M 60.116 88.799 C 60.597 88.799 61.084 88.758 61.561 88.678 C 61.875 88.627 62.175 88.558 62.472 88.474 C 66.558 87.333 69.074 83.474 68.329 79.497 C 67.614 75.703 64.153 72.948 60.099 72.948 C 59.615 72.948 59.126 72.989 58.646 73.07 C 54.123 73.833 51.093 77.962 51.892 82.274 C 52.606 86.053 56.065 88.799 60.116 88.799 Z " fill="rgb(255,255,255)"/></g><g id="Group"><path d=" M 45.243 94 C 46.223 91.695 46.2 89.178 45.176 86.914 C 43.655 83.551 40.012 81.291 36.111 81.291 C 34.81 81.291 33.55 81.538 32.366 82.023 C 29.956 82.982 28.095 84.767 27.117 87.051 C 26.131 89.35 26.157 91.877 27.19 94.167 C 28.732 97.592 32.257 99.805 36.173 99.805 L 36.174 99.805 C 37.104 99.805 38.033 99.677 38.933 99.425 C 39.296 99.324 39.649 99.204 40.003 99.06 C 42.406 98.096 44.267 96.298 45.243 94 Z " fill="rgb(255,255,255)"/></g><g id="Group"><path d=" M 20.683 101.24 C 18.53 98.442 15.067 96.772 11.416 96.772 C 10.324 96.772 9.24 96.921 8.192 97.216 C 6.943 97.564 5.766 98.116 4.692 98.857 C 2.231 100.557 0.615 103.07 0.141 105.935 C -0.333 108.799 0.394 111.662 2.187 113.999 C 4.332 116.8 7.8 118.473 11.461 118.473 C 12.552 118.473 13.635 118.325 14.682 118.033 C 15.929 117.686 17.103 117.135 18.172 116.4 C 23.265 112.865 24.393 106.063 20.683 101.24 Z " fill="rgb(255,255,255)"/></g><g id="Group"><path d=" M 143.701 139.23 C 143.531 137.343 141.824 135.863 139.821 135.863 C 139.708 135.863 139.596 135.868 139.483 135.876 C 137.83 136.009 136.453 137.142 136.058 138.696 C 135.961 139.081 135.93 139.469 135.964 139.88 C 136.146 141.753 137.837 143.225 139.815 143.225 C 139.926 143.225 140.037 143.22 140.149 143.211 C 141.151 143.134 142.108 142.656 142.78 141.901 C 143.461 141.14 143.788 140.19 143.701 139.23 Z " fill="rgb(255,255,255)"/></g><g id="Group"><path d=" M 146.429 135.136 C 146.233 135.916 146.267 136.726 146.531 137.483 C 147.282 139.674 149.88 140.943 152.223 140.222 C 153.306 139.886 154.242 139.098 154.791 138.067 C 155.341 137.033 155.45 135.852 155.09 134.824 C 154.726 133.729 153.931 132.847 152.851 132.331 C 152.218 132.022 151.521 131.861 150.83 131.861 C 150.356 131.861 149.889 131.936 149.437 132.081 C 147.914 132.537 146.796 133.677 146.429 135.136 Z " fill="rgb(255,255,255)"/></g><g id="Group"><path d=" M 157.34 128.343 C 157.01 129.627 157.226 130.946 157.947 132.069 C 158.671 133.216 159.813 134.02 161.172 134.341 C 161.596 134.443 162.032 134.494 162.461 134.494 L 162.462 134.494 C 163.404 134.494 164.329 134.246 165.143 133.777 C 167.535 132.402 168.378 129.204 166.943 126.933 C 165.994 125.458 164.261 124.538 162.423 124.538 C 161.479 124.538 160.552 124.78 159.741 125.238 C 158.524 125.935 157.67 127.038 157.34 128.343 Z " fill="rgb(255,255,255)"/></g><g id="Group"><path d=" M 173.936 124.781 C 175.523 124.781 177.032 124.201 178.182 123.15 C 180.508 121.008 180.571 117.159 178.314 114.919 C 177.162 113.804 175.6 113.186 173.924 113.186 C 172.313 113.186 170.786 113.765 169.624 114.816 C 168.817 115.567 168.242 116.53 167.969 117.594 C 167.473 119.552 168.051 121.579 169.517 123.015 C 170.653 124.125 172.181 124.752 173.818 124.779 L 173.934 125.624 L 173.936 125.624 L 173.936 124.781 Z " fill="rgb(255,255,255)"/></g><g id="Group"><path d=" M 190.137 107.713 C 192.242 104.633 191.271 100.331 188.02 98.316 C 186.866 97.612 185.529 97.24 184.157 97.24 C 181.712 97.24 179.467 98.396 178.151 100.333 C 177.71 100.979 177.389 101.685 177.196 102.435 C 176.487 105.226 177.716 108.147 180.253 109.701 C 181.417 110.419 182.76 110.799 184.135 110.799 C 184.645 110.799 185.163 110.747 185.672 110.644 C 187.53 110.261 189.118 109.219 190.137 107.713 Z " fill="rgb(255,255,255)"/></g><g id="Group"><path d=" M 194.541 76.863 C 193.623 76.547 192.669 76.388 191.702 76.388 C 188.197 76.388 185.031 78.489 183.83 81.616 C 183.721 81.894 183.634 82.176 183.559 82.458 C 182.564 86.377 184.827 90.378 188.826 91.761 C 189.731 92.068 190.679 92.225 191.639 92.225 C 195.157 92.225 198.322 90.129 199.517 87.009 C 201.049 82.885 198.817 78.331 194.541 76.863 Z " fill="rgb(255,255,255)"/></g><g id="Group"><path d=" M 125.84 127.714 C 125.644 128.475 125.677 129.275 125.935 130.023 C 126.307 131.111 127.106 131.991 128.183 132.507 C 128.822 132.814 129.501 132.97 130.206 132.97 C 130.682 132.97 131.159 132.896 131.622 132.751 C 132.718 132.418 133.659 131.636 134.209 130.603 C 134.759 129.578 134.868 128.406 134.513 127.392 C 134.143 126.303 133.35 125.419 132.272 124.892 C 131.628 124.577 130.941 124.416 130.226 124.416 C 129.76 124.416 129.293 124.487 128.837 124.626 C 127.335 125.101 126.208 126.258 125.84 127.714 Z " fill="rgb(255,255,255)"/></g><g id="Group"><path d=" M 140.586 126.891 C 141.924 127.199 143.388 126.995 144.575 126.315 C 146.984 124.926 147.8 121.785 146.355 119.455 C 145.389 117.975 143.695 117.081 141.836 117.081 C 140.883 117.081 139.95 117.329 139.138 117.797 C 137.93 118.493 137.084 119.587 136.754 120.884 C 136.428 122.174 136.646 123.498 137.372 124.606 C 138.088 125.756 139.226 126.562 140.586 126.891 Z " fill="rgb(255,255,255)"/></g><g id="Group"><path d=" M 153.328 117.326 C 154.936 117.326 156.452 116.745 157.594 115.69 C 158.711 114.669 159.366 113.188 159.395 111.622 C 159.423 110.052 158.82 108.541 157.737 107.481 C 156.578 106.344 155.015 105.718 153.34 105.718 C 151.74 105.718 150.228 106.296 149.08 107.345 C 148.248 108.118 147.662 109.093 147.391 110.157 C 146.9 112.095 147.48 114.119 148.946 115.572 C 150.082 116.672 151.614 117.299 153.254 117.326 L 153.326 118.175 L 153.328 118.175 L 153.328 117.326 Z " fill="rgb(255,255,255)"/></g><g id="Group"><path d=" M 169.545 100.256 C 170.558 98.782 170.895 96.983 170.493 95.183 C 170.097 93.397 168.987 91.828 167.449 90.878 C 166.294 90.169 164.955 89.793 163.58 89.793 C 161.141 89.793 158.892 90.948 157.57 92.882 C 157.124 93.526 156.802 94.233 156.608 94.987 C 155.904 97.759 157.138 100.677 159.675 102.248 C 160.839 102.965 162.178 103.344 163.546 103.344 C 164.052 103.344 164.564 103.293 165.066 103.19 C 166.931 102.807 168.521 101.764 169.545 100.256 Z " fill="rgb(255,255,255)"/></g><g id="Group"><path d=" M 168.253 84.304 C 169.153 84.61 170.101 84.767 171.061 84.767 C 174.582 84.767 177.752 82.67 178.954 79.55 C 180.537 75.465 178.295 70.912 173.961 69.399 C 173.038 69.08 172.076 68.92 171.103 68.92 C 169.88 68.92 168.691 69.172 167.569 69.671 C 165.549 70.568 164.021 72.158 163.263 74.147 C 163.15 74.442 163.059 74.731 162.983 75.024 C 161.994 78.919 164.259 82.911 168.253 84.304 Z " fill="rgb(255,255,255)"/></g><g id="Group"><path d=" M 173.065 61.558 C 173.465 61.606 173.861 61.628 174.254 61.628 C 179.173 61.628 183.335 58.128 183.938 53.486 C 184.586 48.424 180.774 43.796 175.437 43.171 C 175.036 43.124 174.632 43.102 174.234 43.102 C 169.719 43.102 165.83 45.998 164.775 50.145 C 164.683 50.501 164.616 50.872 164.566 51.247 C 164.251 53.722 164.968 56.16 166.583 58.104 C 168.182 60.039 170.485 61.266 173.065 61.558 Z " fill="rgb(255,255,255)"/></g><g id="Group"><path d=" M 121.238 119.831 C 121.574 118.53 121.374 117.177 120.69 116.117 C 119.744 114.627 118.02 113.704 116.184 113.704 C 115.237 113.704 114.307 113.95 113.493 114.416 C 112.264 115.105 111.411 116.201 111.08 117.505 C 110.755 118.781 110.971 120.122 111.688 121.275 C 112.643 122.762 114.325 123.656 116.184 123.656 C 117.135 123.656 118.069 123.409 118.885 122.943 C 120.038 122.286 120.896 121.151 121.238 119.831 Z " fill="rgb(255,255,255)"/></g><g id="Group"><path d=" M 127.674 113.936 L 127.676 113.936 C 129.274 113.936 130.779 113.36 131.912 112.314 C 134.259 110.176 134.332 106.343 132.072 104.106 C 130.933 102.985 129.4 102.348 127.749 102.317 L 127.748 102.317 C 126.068 102.317 124.555 102.895 123.4 103.947 C 122.571 104.722 121.982 105.703 121.708 106.77 C 121.213 108.72 121.795 110.746 123.265 112.185 C 124.431 113.313 125.998 113.936 127.674 113.936 Z " fill="rgb(255,255,255)"/></g><g id="Group"><path d=" M 134 98.884 C 135.152 99.59 136.491 99.965 137.866 99.965 C 140.312 99.965 142.563 98.805 143.888 96.865 C 145.954 93.836 144.968 89.462 141.779 87.505 C 140.62 86.789 139.279 86.412 137.901 86.412 C 135.464 86.412 133.216 87.565 131.888 89.497 C 131.446 90.148 131.126 90.855 130.938 91.595 C 130.233 94.375 131.461 97.305 134 98.884 Z " fill="rgb(255,255,255)"/></g><g id="Group"><path d=" M 148.261 66.023 C 147.352 65.711 146.402 65.553 145.44 65.553 C 141.937 65.553 138.777 67.647 137.577 70.763 C 137.468 71.044 137.38 71.323 137.31 71.608 C 136.309 75.538 138.575 79.536 142.577 80.914 C 143.492 81.227 144.449 81.386 145.415 81.386 C 148.928 81.386 152.091 79.291 153.288 76.17 C 154.852 72.075 152.597 67.522 148.261 66.023 Z " fill="rgb(255,255,255)"/></g><g id="Group"><path d=" M 149.752 39.787 C 149.354 39.741 148.957 39.719 148.568 39.719 C 144.04 39.719 140.14 42.632 139.078 46.804 C 138.989 47.152 138.921 47.5 138.878 47.86 C 138.557 50.322 139.269 52.749 140.878 54.696 C 142.492 56.655 144.803 57.894 147.384 58.187 C 147.763 58.23 148.142 58.251 148.518 58.251 C 153.417 58.251 157.692 54.676 158.252 50.112 C 158.581 47.651 157.881 45.229 156.285 43.285 C 154.682 41.326 152.36 40.084 149.752 39.787 Z " fill="rgb(255,255,255)"/></g><g id="Group"><path d=" M 145.326 30.967 C 145.729 30.967 146.138 30.947 146.547 30.905 C 151.353 30.416 155.34 27.103 156.467 22.66 C 156.774 21.459 156.856 20.214 156.719 18.965 C 156.099 13.441 151.216 9.273 145.358 9.273 C 144.956 9.273 144.553 9.293 144.145 9.334 C 139.337 9.812 135.346 13.127 134.211 17.581 C 133.907 18.79 133.823 20.03 133.961 21.265 C 134.591 26.795 139.476 30.967 145.326 30.967 Z " fill="rgb(255,255,255)"/></g><g id="Group"><path d=" M 54.658 106.941 C 54.354 106.668 54.016 106.45 53.624 106.273 C 53.121 106.054 52.574 105.939 52.01 105.939 C 50.501 105.939 49.117 106.765 48.487 108.043 C 48.058 108.905 48.016 109.932 48.369 110.861 C 48.725 111.799 49.429 112.543 50.35 112.953 C 50.864 113.181 51.413 113.297 51.98 113.297 L 51.981 113.297 C 53.491 113.297 54.88 112.461 55.519 111.166 C 56.226 109.742 55.879 108.043 54.658 106.941 Z " fill="rgb(255,255,255)"/></g><g id="Group"><path d=" M 50.535 116.154 C 50.214 116.09 49.898 116.058 49.582 116.058 C 47.475 116.058 45.624 117.486 45.181 119.456 C 44.948 120.513 45.198 121.679 45.868 122.647 C 46.537 123.614 47.56 124.294 48.677 124.51 C 49.882 124.765 51.064 124.542 52.078 123.919 C 53.091 123.292 53.777 122.339 54.008 121.236 C 54.352 119.76 53.869 118.271 52.721 117.234 C 52.105 116.686 51.347 116.309 50.535 116.154 Z " fill="rgb(255,255,255)"/></g><g id="Group"><path d=" M 49.959 138.19 C 52.837 138.127 55.149 135.853 55.105 133.122 C 55.077 131.774 54.496 130.521 53.471 129.598 C 52.499 128.719 51.232 128.235 49.905 128.235 C 48.357 128.255 47.049 128.79 46.074 129.744 C 45.098 130.704 44.575 131.965 44.604 133.288 C 44.665 135.9 47.132 138.19 49.885 138.19 L 49.885 139.037 L 49.885 139.037 L 49.959 138.19 Z " fill="rgb(255,255,255)"/></g><g id="Group"><path d=" M 53.869 153.693 C 54.333 153.693 54.794 153.64 55.239 153.537 C 58.484 152.747 60.482 149.568 59.682 146.452 C 59.398 145.414 58.804 144.459 57.97 143.702 C 56.814 142.664 55.309 142.09 53.738 142.09 C 53.237 142.09 52.734 142.148 52.244 142.264 C 50.665 142.64 49.328 143.583 48.48 144.918 C 47.642 146.242 47.395 147.805 47.789 149.309 C 48.455 151.806 51.068 153.691 53.869 153.693 Z " fill="rgb(255,255,255)"/></g><g id="Group"><path d=" M 65.548 169.811 C 69.049 168.102 70.439 164.014 68.642 160.701 C 68.272 160.014 67.788 159.395 67.2 158.866 C 65.868 157.66 64.114 156.998 62.266 156.998 C 61.145 156.998 60.028 157.254 59.034 157.736 C 57.325 158.566 56.055 159.981 55.466 161.72 C 54.884 163.438 55.041 165.262 55.91 166.854 C 57.11 169.081 59.652 170.517 62.39 170.517 C 63.51 170.517 64.573 170.28 65.548 169.811 Z " fill="rgb(255,255,255)"/></g><g id="Group"><path d=" M 82.893 174.72 C 82.693 174.491 82.478 174.278 82.256 174.073 C 80.699 172.671 78.654 171.895 76.503 171.895 C 74.544 171.895 72.636 172.556 71.131 173.751 C 67.626 176.571 67.173 181.576 70.125 184.911 C 71.741 186.697 74.09 187.727 76.563 187.727 C 78.511 187.727 80.397 187.077 81.878 185.893 C 85.398 183.082 85.853 178.069 82.893 174.72 Z " fill="rgb(255,255,255)"/></g><g id="Group"><path d=" M 67.638 102.961 C 67.329 102.898 67.013 102.87 66.701 102.87 C 65.834 102.87 64.984 103.11 64.241 103.566 C 63.234 104.191 62.547 105.15 62.307 106.268 C 62.062 107.337 62.304 108.5 62.971 109.471 C 63.632 110.434 64.646 111.11 65.751 111.323 C 66.954 111.572 68.14 111.351 69.155 110.732 C 70.164 110.119 70.86 109.166 71.118 108.047 C 71.436 106.575 70.942 105.074 69.797 104.04 C 69.196 103.498 68.451 103.126 67.638 102.961 Z " fill="rgb(255,255,255)"/></g><g id="Group"><path d=" M 67.076 125.018 C 69.961 124.935 72.269 122.647 72.199 119.918 C 72.169 118.58 71.592 117.338 70.574 116.419 C 69.603 115.545 68.348 115.063 67.034 115.063 L 66.846 115.066 C 65.458 115.081 64.153 115.611 63.174 116.563 C 62.201 117.528 61.678 118.796 61.705 120.131 C 61.765 122.779 64.205 125.018 67.031 125.018 L 67.03 125.867 L 67.076 125.018 Z " fill="rgb(255,255,255)"/></g><g id="Group"><path d=" M 65.573 131.75 C 64.74 133.082 64.498 134.639 64.896 136.131 C 65.553 138.632 68.153 140.516 70.945 140.516 C 71.412 140.516 71.875 140.463 72.322 140.356 C 75.59 139.579 77.587 136.418 76.772 133.315 C 76.484 132.245 75.89 131.278 75.051 130.521 C 73.904 129.488 72.402 128.918 70.823 128.918 C 70.323 128.918 69.822 128.976 69.331 129.09 C 67.76 129.471 66.421 130.416 65.573 131.75 Z " fill="rgb(255,255,255)"/></g><g id="Group"><path d=" M 72.576 148.523 C 71.993 150.245 72.149 152.072 73.015 153.666 C 74.206 155.898 76.748 157.336 79.493 157.336 L 79.494 157.336 C 80.592 157.336 81.676 157.094 82.626 156.635 C 86.13 154.938 87.524 150.846 85.736 147.518 C 85.369 146.83 84.883 146.21 84.291 145.673 C 82.971 144.483 81.227 143.826 79.382 143.826 C 78.258 143.826 77.133 144.081 76.132 144.562 C 74.424 145.386 73.162 146.793 72.576 148.523 Z " fill="rgb(255,255,255)"/></g><g id="Group"><path d=" M 99.995 161.563 C 99.782 161.319 99.561 161.101 99.331 160.888 C 97.788 159.498 95.752 158.726 93.608 158.726 C 91.649 158.726 89.738 159.385 88.227 160.58 C 84.728 163.4 84.273 168.412 87.218 171.747 C 88.802 173.548 91.124 174.58 93.589 174.58 C 95.55 174.58 97.465 173.921 98.98 172.725 C 100.692 171.359 101.741 169.444 101.931 167.334 C 102.122 165.229 101.434 163.181 99.995 161.563 Z " fill="rgb(255,255,255)"/></g><g id="Group"><path d=" M 121.157 174.803 C 120.88 174.554 120.575 174.31 120.255 174.081 C 118.536 172.859 116.506 172.212 114.389 172.212 C 113.923 172.212 113.455 172.244 112.985 172.309 C 110.419 172.656 108.148 173.934 106.59 175.907 C 105.031 177.871 104.369 180.298 104.725 182.74 C 105.082 185.198 106.432 187.374 108.525 188.868 C 110.226 190.084 112.253 190.727 114.384 190.727 C 117.486 190.727 120.334 189.385 122.193 187.049 C 125.176 183.294 124.731 178.029 121.157 174.803 Z " fill="rgb(255,255,255)"/></g><g id="Group"><path d=" M 82.958 105.61 C 85.855 105.559 88.166 103.29 88.111 100.55 C 88.097 99.198 87.523 97.947 86.497 97.022 C 85.504 96.127 84.191 95.636 82.797 95.636 C 79.876 95.699 77.573 97.977 77.629 100.712 C 77.678 103.322 80.113 105.611 82.84 105.611 L 82.84 106.454 L 82.842 106.454 L 82.958 105.61 Z " fill="rgb(255,255,255)"/></g><g id="Group"><path d=" M 80.819 116.727 C 81.471 119.232 84.072 121.117 86.873 121.117 C 87.335 121.117 87.794 121.065 88.235 120.964 C 89.829 120.589 91.177 119.647 92.026 118.31 C 92.862 116.985 93.108 115.426 92.715 113.921 C 92.422 112.85 91.823 111.879 90.983 111.12 C 89.837 110.082 88.338 109.513 86.767 109.513 C 86.263 109.513 85.757 109.572 85.264 109.69 C 81.993 110.489 79.996 113.647 80.819 116.727 Z " fill="rgb(255,255,255)"/></g><g id="Group"><path d=" M 88.94 134.289 C 90.136 136.505 92.675 137.937 95.409 137.937 L 95.41 137.937 C 96.51 137.937 97.593 137.694 98.542 137.234 C 102.051 135.543 103.451 131.455 101.667 128.117 C 101.294 127.429 100.808 126.813 100.226 126.286 C 98.894 125.086 97.14 124.424 95.287 124.424 C 94.165 124.424 93.042 124.679 92.041 125.158 C 88.536 126.862 87.143 130.96 88.94 134.289 Z " fill="rgb(255,255,255)"/></g><g id="Group"><path d=" M 103.135 152.356 C 104.724 154.146 107.045 155.176 109.505 155.176 C 111.475 155.176 113.396 154.51 114.916 153.303 C 118.424 150.497 118.879 145.496 115.931 142.155 C 115.73 141.931 115.517 141.716 115.292 141.516 C 113.727 140.101 111.683 139.324 109.536 139.324 C 107.575 139.324 105.665 139.986 104.16 141.187 C 100.639 144.006 100.178 149.017 103.135 152.356 Z " fill="rgb(255,255,255)"/></g><g id="Group"><path d=" M 138.127 167.645 C 141.103 163.88 140.642 158.602 137.056 155.37 C 136.782 155.123 136.5 154.891 136.192 154.676 C 134.481 153.452 132.458 152.805 130.338 152.805 C 129.876 152.805 129.412 152.837 128.947 152.898 C 126.354 153.243 124.068 154.524 122.509 156.499 C 120.956 158.471 120.311 160.928 120.692 163.417 C 121.07 165.875 122.404 168.023 124.45 169.464 C 126.164 170.699 128.19 171.349 130.312 171.349 C 130.762 171.349 131.212 171.32 131.665 171.261 C 134.256 170.924 136.549 169.639 138.127 167.645 Z " fill="rgb(255,255,255)"/></g><g id="Group"><path d=" M 166.174 165.985 C 165.228 165.132 164.139 164.442 162.934 163.931 C 161.469 163.316 159.915 163.006 158.32 163.006 C 153.783 163.006 149.671 165.536 147.839 169.45 C 145.882 173.646 146.915 178.578 150.407 181.723 C 151.346 182.569 152.441 183.259 153.66 183.779 C 155.123 184.394 156.675 184.708 158.27 184.708 C 162.796 184.708 166.904 182.179 168.739 178.263 C 170.706 174.076 169.677 169.141 166.174 165.985 Z " fill="rgb(255,255,255)"/></g></g></g></svg>