<?xml version="1.0" standalone="no"?><!-- Generator: Gravit.io --><svg xmlns="http://www.w3.org/2000/svg" xmlns:xlink="http://www.w3.org/1999/xlink" style="isolation:isolate" viewBox="0 0 200 200" width="200" height="200"><defs><clipPath id="_clipPath_4zLpdbri51sluod526TtgeERI77U2G9P"><rect width="200" height="200"/></clipPath></defs><g clip-path="url(#_clipPath_4zLpdbri51sluod526TtgeERI77U2G9P)"><path d=" M 133.896 15.548 C 133.896 9.175 139.071 4 145.445 4 C 151.818 4 156.993 9.175 156.993 15.548 C 156.993 21.922 151.818 27.096 145.445 27.096 C 139.071 27.096 133.896 21.922 133.896 15.548 Z " fill="rgb(51,153,51)"/><path d=" M 138.822 45.843 C 138.822 40.447 143.203 36.066 148.599 36.066 C 153.995 36.066 158.376 40.447 158.376 45.843 C 158.376 51.239 153.995 55.62 148.599 55.62 C 143.203 55.62 138.822 51.239 138.822 45.843 Z " fill="rgb(51,153,51)"/><path d=" M 164.482 49.504 C 164.482 44.121 168.852 39.75 174.236 39.75 C 179.619 39.75 183.99 44.121 183.99 49.504 C 183.99 54.888 179.619 59.259 174.236 59.259 C 168.852 59.259 164.482 54.888 164.482 49.504 Z " fill="rgb(51,153,51)"/><path d=" M 162.746 75.34 C 162.746 70.736 166.485 66.997 171.089 66.997 C 175.693 66.997 179.432 70.736 179.432 75.34 C 179.432 79.944 175.693 83.683 171.089 83.683 C 166.485 83.683 162.746 79.944 162.746 75.34 Z " fill="rgb(51,153,51)"/><path d=" M 183.208 83.237 C 183.208 78.603 186.97 74.84 191.604 74.84 C 196.238 74.84 200 78.603 200 83.237 C 200 87.871 196.238 91.633 191.604 91.633 C 186.97 91.633 183.208 87.871 183.208 83.237 Z " fill="rgb(51,153,51)"/><path d=" M 136.755 71.813 C 136.755 67.096 140.585 63.267 145.302 63.267 C 150.019 63.267 153.848 67.096 153.848 71.813 C 153.848 76.53 150.019 80.36 145.302 80.36 C 140.585 80.36 136.755 76.53 136.755 71.813 Z " fill="rgb(51,153,51)"/><path d=" M 130.681 92.611 C 130.681 88.655 133.893 85.443 137.849 85.443 C 141.805 85.443 145.016 88.655 145.016 92.611 C 145.016 96.567 141.805 99.779 137.849 99.779 C 133.893 99.779 130.681 96.567 130.681 92.611 Z " fill="rgb(51,153,51)"/><path d=" M 156.394 96.12 C 156.394 92.193 159.582 89.006 163.508 89.006 C 167.435 89.006 170.623 92.193 170.623 96.12 C 170.623 100.046 167.435 103.234 163.508 103.234 C 159.582 103.234 156.394 100.046 156.394 96.12 Z " fill="rgb(51,153,51)"/><path d=" M 176.812 103.973 C 176.812 100.012 180.028 96.795 183.99 96.795 C 187.952 96.795 191.168 100.012 191.168 103.973 C 191.168 107.935 187.952 111.151 183.99 111.151 C 180.028 111.151 176.812 107.935 176.812 103.973 Z " fill="rgb(51,153,51)"/><path d=" M 167.776 119.807 C 167.776 116.466 170.489 113.753 173.831 113.753 C 177.172 113.753 179.885 116.466 179.885 119.807 C 179.885 123.149 177.172 125.862 173.831 125.862 C 170.489 125.862 167.776 123.149 167.776 119.807 Z " fill="rgb(51,153,51)"/><path d=" M 147.083 111.885 C 147.083 108.471 149.855 105.698 153.27 105.698 C 156.685 105.698 159.457 108.471 159.457 111.885 C 159.457 115.3 156.685 118.072 153.27 118.072 C 149.855 118.072 147.083 115.3 147.083 111.885 Z " fill="rgb(51,153,51)"/><path d=" M 121.495 108.331 C 121.495 104.947 124.242 102.2 127.626 102.2 C 131.009 102.2 133.756 104.947 133.756 108.331 C 133.756 111.714 131.009 114.461 127.626 114.461 C 124.242 114.461 121.495 111.714 121.495 108.331 Z " fill="rgb(51,153,51)"/><path d=" M 136.501 122.964 C 136.501 120.015 138.895 117.621 141.844 117.621 C 144.793 117.621 147.188 120.015 147.188 122.964 C 147.188 125.914 144.793 128.308 141.844 128.308 C 138.895 128.308 136.501 125.914 136.501 122.964 Z " fill="rgb(51,153,51)"/><path d=" M 157.016 130.859 C 157.016 127.884 159.43 125.469 162.405 125.469 C 165.379 125.469 167.794 127.884 167.794 130.859 C 167.794 133.833 165.379 136.248 162.405 136.248 C 159.43 136.248 157.016 133.833 157.016 130.859 Z " fill="rgb(51,153,51)"/><path d=" M 146.535 137.838 C 146.535 135.493 148.439 133.59 150.783 133.59 C 153.127 133.59 155.031 135.493 155.031 137.838 C 155.031 140.182 153.127 142.086 150.783 142.086 C 148.439 142.086 146.535 140.182 146.535 137.838 Z " fill="rgb(51,153,51)"/><path d=" M 135.927 141.398 C 135.927 139.267 137.657 137.537 139.788 137.537 C 141.918 137.537 143.648 139.267 143.648 141.398 C 143.648 143.528 141.918 145.258 139.788 145.258 C 137.657 145.258 135.927 143.528 135.927 141.398 Z " fill="rgb(51,153,51)"/><path d=" M 125.635 130.15 C 125.635 127.62 127.689 125.566 130.22 125.566 C 132.75 125.566 134.804 127.62 134.804 130.15 C 134.804 132.68 132.75 134.734 130.22 134.734 C 127.689 134.734 125.635 132.68 125.635 130.15 Z " fill="rgb(51,153,51)"/><path d=" M 110.833 119.456 C 110.833 116.514 113.222 114.125 116.164 114.125 C 119.106 114.125 121.495 116.514 121.495 119.456 C 121.495 122.398 119.106 124.786 116.164 124.786 C 113.222 124.786 110.833 122.398 110.833 119.456 Z " fill="rgb(51,153,51)"/><path d=" M 146.754 177.584 C 146.754 171.242 151.903 166.094 158.244 166.094 C 164.585 166.094 169.733 171.242 169.733 177.584 C 169.733 183.925 164.585 189.073 158.244 189.073 C 151.903 189.073 146.754 183.925 146.754 177.584 Z " fill="rgb(51,153,51)"/><path d=" M 120.702 165.414 C 120.702 160.124 124.996 155.83 130.286 155.83 C 135.575 155.83 139.869 160.124 139.869 165.414 C 139.869 170.703 135.575 174.997 130.286 174.997 C 124.996 174.997 120.702 170.703 120.702 165.414 Z " fill="rgb(51,153,51)"/><path d=" M 104.708 185.445 C 104.708 180.11 109.038 175.779 114.373 175.779 C 119.707 175.779 124.038 180.11 124.038 185.445 C 124.038 190.779 119.707 195.11 114.373 195.11 C 109.038 195.11 104.708 190.779 104.708 185.445 Z " fill="rgb(51,153,51)"/><path d=" M 101.161 149.554 C 101.161 144.934 104.911 141.184 109.531 141.184 C 114.151 141.184 117.902 144.934 117.902 149.554 C 117.902 154.174 114.151 157.925 109.531 157.925 C 104.911 157.925 101.161 154.174 101.161 149.554 Z " fill="rgb(51,153,51)"/><path d=" M 85.276 169.965 C 85.276 165.356 89.017 161.614 93.626 161.614 C 98.234 161.614 101.976 165.356 101.976 169.965 C 101.976 174.573 98.234 178.315 93.626 178.315 C 89.017 178.315 85.276 174.573 85.276 169.965 Z " fill="rgb(51,153,51)"/><path d=" M 68.211 183.844 C 68.211 179.251 71.94 175.522 76.533 175.522 C 81.126 175.522 84.855 179.251 84.855 183.844 C 84.855 188.437 81.126 192.166 76.533 192.166 C 71.94 192.166 68.211 188.437 68.211 183.844 Z " fill="rgb(51,153,51)"/><path d=" M 55.129 166.937 C 55.129 163.022 58.307 159.843 62.223 159.843 C 66.138 159.843 69.317 163.022 69.317 166.937 C 69.317 170.853 66.138 174.031 62.223 174.031 C 58.307 174.031 55.129 170.853 55.129 166.937 Z " fill="rgb(51,153,51)"/><path d=" M 72.262 153.025 C 72.262 149.102 75.447 145.918 79.369 145.918 C 83.291 145.918 86.476 149.102 86.476 153.025 C 86.476 156.947 83.291 160.131 79.369 160.131 C 75.447 160.131 72.262 156.947 72.262 153.025 Z " fill="rgb(51,153,51)"/><path d=" M 88.249 132.627 C 88.249 128.7 91.437 125.513 95.364 125.513 C 99.29 125.513 102.478 128.7 102.478 132.627 C 102.478 136.553 99.29 139.741 95.364 139.741 C 91.437 139.741 88.249 136.553 88.249 132.627 Z " fill="rgb(51,153,51)"/><path d=" M 64.697 136.306 C 64.697 132.909 67.455 130.15 70.853 130.15 C 74.251 130.15 77.01 132.909 77.01 136.306 C 77.01 139.704 74.251 142.463 70.853 142.463 C 67.455 142.463 64.697 139.704 64.697 136.306 Z " fill="rgb(51,153,51)"/><path d=" M 47.686 150.201 C 47.686 146.832 50.421 144.096 53.791 144.096 C 57.161 144.096 59.896 146.832 59.896 150.201 C 59.896 153.571 57.161 156.307 53.791 156.307 C 50.421 156.307 47.686 153.571 47.686 150.201 Z " fill="rgb(51,153,51)"/><path d=" M 44.557 134.734 C 44.557 131.817 46.925 129.449 49.841 129.449 C 52.758 129.449 55.126 131.817 55.126 134.734 C 55.126 137.651 52.758 140.019 49.841 140.019 C 46.925 140.019 44.557 137.651 44.557 134.734 Z " fill="rgb(51,153,51)"/><path d=" M 45.117 121.171 C 45.117 118.669 47.148 116.637 49.65 116.637 C 52.152 116.637 54.183 118.669 54.183 121.171 C 54.183 123.672 52.152 125.704 49.65 125.704 C 47.148 125.704 45.117 123.672 45.117 121.171 Z " fill="rgb(51,153,51)"/><path d=" M 48.132 109.936 C 48.132 107.807 49.86 106.078 51.989 106.078 C 54.119 106.078 55.847 107.807 55.847 109.936 C 55.847 112.065 54.119 113.794 51.989 113.794 C 49.86 113.794 48.132 112.065 48.132 109.936 Z " fill="rgb(51,153,51)"/><path d=" M 62.167 107.301 C 62.167 104.771 64.221 102.717 66.751 102.717 C 69.281 102.717 71.335 104.771 71.335 107.301 C 71.335 109.831 69.281 111.885 66.751 111.885 C 64.221 111.885 62.167 109.831 62.167 107.301 Z " fill="rgb(51,153,51)"/><path d=" M 77.565 100.414 C 77.565 97.466 79.958 95.073 82.906 95.073 C 85.854 95.073 88.247 97.466 88.247 100.414 C 88.247 103.361 85.854 105.754 82.906 105.754 C 79.958 105.754 77.565 103.361 77.565 100.414 Z " fill="rgb(51,153,51)"/><path d=" M 80.704 115.87 C 80.704 112.516 83.427 109.793 86.782 109.793 C 90.136 109.793 92.859 112.516 92.859 115.87 C 92.859 119.225 90.136 121.948 86.782 121.948 C 83.427 121.948 80.704 119.225 80.704 115.87 Z " fill="rgb(51,153,51)"/><path d=" M 61.67 120.89 C 61.67 117.968 64.042 115.595 66.965 115.595 C 69.887 115.595 72.26 117.968 72.26 120.89 C 72.26 123.813 69.887 126.185 66.965 126.185 C 64.042 126.185 61.67 123.813 61.67 120.89 Z " fill="rgb(51,153,51)"/><path d=" M 0 107.788 C 0 101.466 5.132 96.334 11.454 96.334 C 17.775 96.334 22.908 101.466 22.908 107.788 C 22.908 114.109 17.775 119.242 11.454 119.242 C 5.132 119.242 0 114.109 0 107.788 Z " fill="rgb(51,153,51)"/><path d=" M 26.404 89.775 C 26.404 84.361 30.8 79.965 36.214 79.965 C 41.628 79.965 46.024 84.361 46.024 89.775 C 46.024 95.19 41.628 99.585 36.214 99.585 C 30.8 99.585 26.404 95.19 26.404 89.775 Z " fill="rgb(51,153,51)"/><path d=" M 16.746 65.749 C 16.746 60.362 21.119 55.989 26.506 55.989 C 31.892 55.989 36.265 60.362 36.265 65.749 C 36.265 71.135 31.892 75.508 26.506 75.508 C 21.119 75.508 16.746 71.135 16.746 65.749 Z " fill="rgb(51,153,51)"/><path d=" M 42.016 55.62 C 42.016 51.003 45.765 47.254 50.382 47.254 C 54.999 47.254 58.747 51.003 58.747 55.62 C 58.747 60.237 54.999 63.985 50.382 63.985 C 45.765 63.985 42.016 60.237 42.016 55.62 Z " fill="rgb(51,153,51)"/><path d=" M 51.763 79.585 C 51.763 74.953 55.524 71.192 60.156 71.192 C 64.789 71.192 68.55 74.953 68.55 79.585 C 68.55 84.218 64.789 87.979 60.156 87.979 C 55.524 87.979 51.763 84.218 51.763 79.585 Z " fill="rgb(51,153,51)"/><path d=" M 74.731 75.745 C 74.731 71.8 77.934 68.598 81.879 68.598 C 85.824 68.598 89.026 71.8 89.026 75.745 C 89.026 79.69 85.824 82.893 81.879 82.893 C 77.934 82.893 74.731 79.69 74.731 75.745 Z " fill="rgb(51,153,51)"/><path d=" M 94.51 76.718 C 94.51 73.322 97.267 70.565 100.664 70.565 C 104.06 70.565 106.818 73.322 106.818 76.718 C 106.818 80.115 104.06 82.872 100.664 82.872 C 97.267 82.872 94.51 80.115 94.51 76.718 Z " fill="rgb(51,153,51)"/><path d=" M 110.981 81.111 C 110.981 78.251 113.304 75.929 116.164 75.929 C 119.025 75.929 121.347 78.251 121.347 81.111 C 121.347 83.972 119.025 86.294 116.164 86.294 C 113.304 86.294 110.981 83.972 110.981 81.111 Z " fill="rgb(51,153,51)"/><path d=" M 113.631 63.647 C 113.631 61.152 115.657 59.126 118.152 59.126 C 120.646 59.126 122.672 61.152 122.672 63.647 C 122.672 66.141 120.646 68.167 118.152 68.167 C 115.657 68.167 113.631 66.141 113.631 63.647 Z " fill="rgb(51,153,51)"/><path d=" M 100.992 57.095 C 100.992 54.205 103.339 51.859 106.229 51.859 C 109.119 51.859 111.465 54.205 111.465 57.095 C 111.465 59.985 109.119 62.332 106.229 62.332 C 103.339 62.332 100.992 59.985 100.992 57.095 Z " fill="rgb(51,153,51)"/><path d=" M 84.791 52.715 C 84.791 49.337 87.534 46.595 90.912 46.595 C 94.29 46.595 97.033 49.337 97.033 52.715 C 97.033 56.093 94.29 58.836 90.912 58.836 C 87.534 58.836 84.791 56.093 84.791 52.715 Z " fill="rgb(51,153,51)"/><path d=" M 65.033 51.795 C 65.033 47.848 68.238 44.643 72.186 44.643 C 76.134 44.643 79.339 47.848 79.339 51.795 C 79.339 55.743 76.134 58.948 72.186 58.948 C 68.238 58.948 65.033 55.743 65.033 51.795 Z " fill="rgb(51,153,51)"/><path d=" M 38.818 33.836 C 38.818 29.358 42.454 25.723 46.931 25.723 C 51.409 25.723 55.045 29.358 55.045 33.836 C 55.045 38.314 51.409 41.949 46.931 41.949 C 42.454 41.949 38.818 38.314 38.818 33.836 Z " fill="rgb(51,153,51)"/><path d=" M 61.479 29.993 C 61.479 26.043 64.686 22.836 68.636 22.836 C 72.587 22.836 75.794 26.043 75.794 29.993 C 75.794 33.944 72.587 37.151 68.636 37.151 C 64.686 37.151 61.479 33.944 61.479 29.993 Z " fill="rgb(51,153,51)"/><path d=" M 81.245 30.98 C 81.245 27.573 84.01 24.808 87.416 24.808 C 90.822 24.808 93.588 27.573 93.588 30.98 C 93.588 34.386 90.822 37.151 87.416 37.151 C 84.01 37.151 81.245 34.386 81.245 30.98 Z " fill="rgb(51,153,51)"/><path d=" M 97.611 35.378 C 97.611 32.51 99.939 30.182 102.807 30.182 C 105.674 30.182 108.002 32.51 108.002 35.378 C 108.002 38.245 105.674 40.573 102.807 40.573 C 99.939 40.573 97.611 38.245 97.611 35.378 Z " fill="rgb(51,153,51)"/><path d=" M 109.992 41.949 C 109.992 39.385 112.074 37.304 114.638 37.304 C 117.201 37.304 119.283 39.385 119.283 41.949 C 119.283 44.513 117.201 46.595 114.638 46.595 C 112.074 46.595 109.992 44.513 109.992 41.949 Z " fill="rgb(51,153,51)"/><path d=" M 119.459 49.665 C 119.459 47.555 121.171 45.843 123.281 45.843 C 125.39 45.843 127.103 47.555 127.103 49.665 C 127.103 51.775 125.39 53.487 123.281 53.487 C 121.171 53.487 119.459 51.775 119.459 49.665 Z " fill="rgb(51,153,51)"/></g></svg>